<svg viewBox="0 0 18 16" xmlns="http://www.w3.org/2000/svg"><path d="m8.64640338 15.9375303-3.18001692-9.78702871h6.36003384zm0-.0000165-7.63673156-9.78702867h4.45671464zm-7.63672333-9.78700398 7.63673149 9.78702868-8.36392169-6.07676213c-.2307652-.16764219-.32730142-.46482228-.23915965-.73607838zm0 .00000823 1.9152524-5.89463533c.09851139-.30327024.52761615-.30335254.62612755 0l1.91533469 5.89463533zm7.63672333 9.78699575 3.18001692-9.78702867h4.4567146zm7.63673152-9.78700398.9663498 2.97418817c.0881418.2712561-.0083944.56843619-.2391596.73607838l-8.36392172 6.07676213zm0 .00000823h-4.4567146l1.9153346-5.89463533c.0985114-.30335254.5276162-.30327024.6261276 0z" fill="#fff"/></svg>